<svg id="Calque_1" data-name="Calque 1" xmlns="http://www.w3.org/2000/svg" viewBox="0 0 361.66 350.53"><defs><style>.cls-1{fill:#fff;}</style></defs><title>Logo</title><path class="cls-1" d="M125.43,335.43a174.11,174.11,0,0,1-10-16.84,118.08,118.08,0,0,1-7.06-16,162.32,162.32,0,0,1-5.66-19.19,127,127,0,0,1-3-17.79,169.81,169.81,0,0,1,.57-36.41c-.42,3.45.18-1.05.24-1.44.21-1.35.44-2.7.69-4q.73-4,1.67-8,1.86-7.85,4.46-15.49,1.31-3.78,2.77-7.5c.15-.36,1.89-4.4.53-1.32.54-1.21,1.07-2.42,1.63-3.62q3.33-7.19,7.34-14t8.59-13.2c.77-1.06,1.55-2.11,2.34-3.16-2,2.65.64-.79.88-1.08q2.46-3.06,5.07-6,5.22-5.87,11-11.22c1.91-1.78,3.87-3.52,5.86-5.21l2-1.68c.44-.36,4.73-3.68,2.1-1.7A169,169,0,0,1,184.23,114c2.37-1.17,4.78-2.27,7.2-3.34-3.08,1.36,1-.38,1.32-.53,1.24-.49,2.48-1,3.73-1.42q7.54-2.79,15.33-4.83t15.93-3.34c.39-.06,4.89-.66,1.44-.24q1.71-.21,3.42-.39,4.49-.47,9-.69c23-1.15,39.86,1.34,61.93,9.49,1.25.46,2.49.93,3.73,1.42.36.15,4.4,1.89,1.32.53,2.42,1.07,4.83,2.17,7.2,3.34q7.1,3.49,13.82,7.66c4.47,2.76,8.78,5.74,13,8.9-2.42-1.82,2.37,1.92,3.11,2.54q3.51,2.92,6.86,6,5.74,5.36,11,11.22c1.45,1.63,2.86,3.29,4.25,5,.83,1,1.65,2,2.45,3.06-2-2.59,1.26,1.75,1.59,2.2a165.89,165.89,0,0,1,15.93,27.22c.56,1.2,1.09,2.41,1.63,3.62-1.35-3.05.8,2,1,2.56q1.58,4,2.92,8.16A164,164,0,0,1,398,219.7c.66,3.12,1.18,6.25,1.69,9.39.73,4.46-.27-3.06.19,1.45.14,1.38.3,2.75.43,4.12a168.11,168.11,0,0,1,.62,20.57A135.67,135.67,0,0,1,399,275.05a164.16,164.16,0,0,1-5.68,22.7,150.65,150.65,0,0,1-18.62,37.49c-4.51,6.74-1.31,16.61,5.38,20.52,7.36,4.31,16,1.38,20.52-5.38,30.71-45.94,38.88-105.72,21-158.1-15.38-45-48.37-83.54-91.25-104.48-44-21.5-96.35-25-142.44-7.8-44.54,16.66-82.29,50.35-102.06,93.87a183.52,183.52,0,0,0,2.94,158.4,172,172,0,0,0,10.77,18.3c4.5,6.72,13.22,9.65,20.52,5.38,6.67-3.9,9.91-13.76,5.38-20.52Z" transform="translate(-69.29 -69.07)"/><circle class="cls-1" cx="181.21" cy="180.43" r="37"/><path class="cls-1" d="M216.87,402.17l7.74,17.3h-3.69l-1.14-2.58H214l-1.14,2.58h-3.68Zm1.56,11.71-1.54-3.58-1.57,3.58Z" transform="translate(-69.29 -69.07)"/><path class="cls-1" d="M230,416.13a2,2,0,0,0,2-1.72c0-1.55-2.08-1.77-3.25-2.17-2.07-.71-3.89-2.41-3.89-4.71a5.17,5.17,0,0,1,10.29-.72l-3.38.72a1.72,1.72,0,1,0-3.44,0c0,1.52,1.93,1.93,3.11,2.28,2.14.62,4,2.25,4,4.61a5.37,5.37,0,0,1-5.41,5.16,5.44,5.44,0,0,1-5.38-4.44l3.38-.72a2,2,0,0,0,2,1.71Z" transform="translate(-69.29 -69.07)"/><path class="cls-1" d="M244.85,419.58a8.6,8.6,0,0,1,0-17.2v0a8.77,8.77,0,0,1,6.1,2.51l-2.43,2.43a5,5,0,0,0-3.65-1.51,4.91,4.91,0,0,0-3.64,1.51,5.14,5.14,0,0,0,0,7.3,5.18,5.18,0,0,0,7.3,0l2.43,2.43A8.58,8.58,0,0,1,244.85,419.58Z" transform="translate(-69.29 -69.07)"/><path class="cls-1" d="M259.18,402.17l7.74,17.3h-3.69l-1.15-2.58h-5.8l-1.15,2.58h-3.68Zm1.56,11.71-1.55-3.58-1.57,3.58Z" transform="translate(-69.29 -69.07)"/><path class="cls-1" d="M268.39,414.38V402.51h5.95a6,6,0,0,1,6,5.95,5.6,5.6,0,0,1-1.76,4.18,5.76,5.76,0,0,1-4.21,1.74H271.8v5.09h-3.41Zm5.95-8.49H271.8V411h2.54a2.56,2.56,0,1,0,0-5.12Z" transform="translate(-69.29 -69.07)"/><path class="cls-1" d="M292,402.47v3.4h-6.81v3.42h5.11v3.39h-5.11v3.42H292v3.39H281.78v-17Z" transform="translate(-69.29 -69.07)"/></svg>